<svg width="18" height="18" viewBox="0 0 18 18" fill="none" xmlns="http://www.w3.org/2000/svg">
<path d="M15.2493 7.68217C15.2699 5.26913 13.2147 3.05703 10.668 2.75114C10.6173 2.74512 10.5622 2.73599 10.5038 2.7263C10.3777 2.70541 10.2473 2.68394 10.1158 2.68394C9.59381 2.68394 9.45428 3.05058 9.41754 3.26927C9.38181 3.48187 9.41591 3.66041 9.51863 3.80017C9.69149 4.03521 9.99561 4.07692 10.2399 4.11039C10.3115 4.12028 10.3791 4.12947 10.4356 4.14218C12.7237 4.65346 13.4942 5.45727 13.8707 7.72593C13.8799 7.78135 13.8841 7.84968 13.8885 7.92212C13.9049 8.19332 13.9391 8.75751 14.5457 8.75751H14.5458C14.5963 8.75751 14.6505 8.75317 14.707 8.74454C15.2719 8.6587 15.2542 8.14297 15.2457 7.89517C15.2433 7.82537 15.241 7.75935 15.2469 7.71546C15.2485 7.7044 15.2493 7.69327 15.2493 7.68217Z" fill="#737373"/>
<path d="M9.96738 1.86555C10.0351 1.87043 10.0993 1.87511 10.1527 1.8833C13.9101 2.46114 15.638 4.24132 16.1168 8.02801C16.125 8.09239 16.1262 8.17088 16.1276 8.25402C16.1323 8.54986 16.1422 9.16533 16.8031 9.17807L16.8237 9.17827C17.031 9.17827 17.1959 9.11576 17.3138 8.99234C17.5195 8.77713 17.5052 8.45743 17.4936 8.20047C17.4908 8.13742 17.4881 8.07805 17.4888 8.02607C17.5365 4.15327 14.1842 0.641419 10.3149 0.51085C10.2988 0.510315 10.2835 0.511184 10.268 0.513357C10.2604 0.51446 10.2463 0.515864 10.2222 0.515864C10.1836 0.515864 10.1362 0.512521 10.0858 0.509111C10.0249 0.504933 9.95595 0.500153 9.88602 0.500153C9.26981 0.500153 9.15268 0.938127 9.1377 1.1992C9.10314 1.80261 9.68686 1.84506 9.96738 1.86555Z" fill="#737373"/>
<path d="M15.9359 12.9217C15.856 12.8607 15.7734 12.7976 15.6961 12.7353C15.2858 12.4051 14.8494 12.1008 14.4273 11.8065C14.3397 11.7455 14.2521 11.6845 14.1648 11.6232C13.6241 11.2434 13.1381 11.0589 12.6788 11.0589C12.0603 11.0589 11.521 11.4007 11.0759 12.0746C10.8787 12.3733 10.6395 12.5186 10.3447 12.5186C10.1703 12.5186 9.9722 12.4688 9.75592 12.3707C8.01075 11.5793 6.76459 10.3659 6.052 8.76425C5.70752 7.99013 5.81921 7.48413 6.42546 7.07229C6.76973 6.83863 7.41055 6.40363 7.36515 5.57064C7.31374 4.62469 5.22656 1.7784 4.34714 1.45515C3.97482 1.31823 3.58361 1.31696 3.1823 1.45197C2.17131 1.79184 1.44582 2.38869 1.08406 3.1779C0.734471 3.94049 0.750249 4.83589 1.12972 5.76733C2.2267 8.46036 3.76897 10.8083 5.71388 12.7459C7.6176 14.6426 9.95743 16.1962 12.6683 17.3635C12.9127 17.4687 13.169 17.526 13.3561 17.5679C13.4199 17.5822 13.4749 17.5944 13.5151 17.6054C13.5371 17.6114 13.5599 17.6147 13.5827 17.6149L13.6041 17.615C13.6042 17.615 13.6041 17.615 13.6042 17.615C14.8792 17.615 16.4102 16.4499 16.8804 15.1216C17.2923 13.9585 16.5402 13.3836 15.9359 12.9217Z" fill="#737373"/>
<path d="M10.5314 4.94149C10.3131 4.947 9.85877 4.95827 9.69939 5.42098C9.62481 5.63719 9.63373 5.82493 9.72596 5.97896C9.86128 6.20497 10.1206 6.27423 10.3564 6.31224C11.2117 6.44949 11.6509 6.92243 11.7388 7.80052C11.7796 8.20995 12.0553 8.49586 12.4093 8.49586H12.4094C12.4355 8.49586 12.4623 8.49432 12.4889 8.49108C12.9147 8.44043 13.1211 8.12761 13.1024 7.56144C13.1092 6.97054 12.8 6.2997 12.274 5.76536C11.7462 5.22937 11.11 4.92752 10.5314 4.94149Z" fill="#737373"/>
</svg>
